<svg xmlns="http://www.w3.org/2000/svg" viewBox="0 0 64 64" aria-label="Earth">
  <defs>
    <radialGradient id="ocean" cx="38%" cy="35%" r="70%">
      <stop offset="0%" stop-color="#5a9fd4"></stop>
      <stop offset="55%" stop-color="#2a6fb8"></stop>
      <stop offset="100%" stop-color="#1a4a82"></stop>
    </radialGradient>
    <radialGradient id="atmos" cx="50%" cy="50%" r="50%">
      <stop offset="92%" stop-color="#9ec9eb" stop-opacity="0"></stop>
      <stop offset="98%" stop-color="#9ec9eb" stop-opacity="0.55"></stop>
      <stop offset="100%" stop-color="#9ec9eb" stop-opacity="0"></stop>
    </radialGradient>
    <radialGradient id="shine" cx="32%" cy="28%" r="28%">
      <stop offset="0%" stop-color="#ffffff" stop-opacity="0.35"></stop>
      <stop offset="100%" stop-color="#ffffff" stop-opacity="0"></stop>
    </radialGradient>
    <clipPath id="globe">
      <circle cx="32" cy="32" r="28"></circle>
    </clipPath>
  </defs>

  
  <circle cx="32" cy="32" r="31" fill="url(#atmos)"></circle>

  
  <circle cx="32" cy="32" r="28" fill="url(#ocean)"></circle>

  
  <g clip-path="url(#globe)" fill="#3d8a3a">
    
    <path d="M10 18 Q14 14 20 15 Q24 16 25 20 Q26 24 22 26 Q18 27 15 30 Q12 32 11 28 Q9 23 10 18 Z"></path>
    
    <path d="M22 34 Q26 33 27 37 Q28 42 25 47 Q22 51 20 47 Q19 42 21 38 Z"></path>
    
    <path d="M32 16 Q38 15 41 19 Q42 23 39 26 Q37 30 38 35 Q37 42 33 45 Q29 44 30 38 Q31 31 31 24 Q30 19 32 16 Z"></path>
    
    <path d="M44 20 Q50 19 53 23 Q54 27 50 29 Q46 30 44 27 Q43 23 44 20 Z"></path>
    <path d="M46 38 Q51 37 53 40 Q53 43 49 43 Q45 42 46 38 Z"></path>
  </g>

  
  <circle cx="32" cy="32" r="28" fill="url(#shine)"></circle>

  
  <circle cx="32" cy="32" r="28" fill="none" stroke="#1a4a82" stroke-opacity="0.4" stroke-width="0.5"></circle>
</svg>